<svg xmlns="http://www.w3.org/2000/svg" viewBox="0 0 32 32" fill="none"><g transform="translate(16 17.5)"><path transform="rotate(8)" d="M0 0C-4.14 -3.38 -3.22 -9.72 0 -13.5C3.22 -9.72 4.14 -3.38 0 0Z" fill="none" stroke="currentColor" stroke-width="2.4" stroke-linejoin="round"/><path transform="rotate(80)" d="M0 0C-4.14 -3.04 -3.22 -8.75 0 -12.15C3.22 -8.75 4.14 -3.04 0 0Z" fill="none" stroke="currentColor" stroke-width="2.4" stroke-linejoin="round"/><path transform="rotate(152)" d="M0 0C-4.14 -2.7 -3.22 -7.78 0 -10.8C3.22 -7.78 4.14 -2.7 0 0Z" fill="none" stroke="currentColor" stroke-width="2.4" stroke-linejoin="round"/><path transform="rotate(224)" d="M0 0C-4.14 -2.7 -3.22 -7.78 0 -10.8C3.22 -7.78 4.14 -2.7 0 0Z" fill="none" stroke="currentColor" stroke-width="2.4" stroke-linejoin="round"/><path transform="rotate(296)" d="M0 0C-4.14 -3.04 -3.22 -8.75 0 -12.15C3.22 -8.75 4.14 -3.04 0 0Z" fill="none" stroke="currentColor" stroke-width="2.4" stroke-linejoin="round"/><circle r="2.6" fill="currentColor"/></g></svg>
